<svg class="plot-a76e89c3d5961" fill="currentColor" font-family="system-ui, sans-serif" font-size="10" text-anchor="middle" width="800" height="400" viewBox="0 0 800 400" xmlns="http://www.w3.org/2000/svg" xmlns:xlink="http://www.w3.org/1999/xlink"><style>
        .plot-a76e89c3d5961 {
          display: block;
          background: white;
          height: auto;
          height: intrinsic;
          max-width: 100%;
        }
        .plot-a76e89c3d5961 text,
        .plot-a76e89c3d5961 tspan {
          white-space: pre;
        }
      </style><g aria-label="y-grid" stroke="currentColor" stroke-opacity="0.1"><line x1="50" x2="780" y1="332.1386169819317" y2="332.1386169819317"/><line x1="50" x2="780" y1="277.13314817666867" y2="277.13314817666867"/><line x1="50" x2="780" y1="244.95701159100253" y2="244.95701159100253"/><line x1="50" x2="780" y1="222.12767937140572" y2="222.12767937140572"/><line x1="50" x2="780" y1="204.41987359054116" y2="204.41987359054116"/><line x1="50" x2="780" y1="189.9515427857395" y2="189.9515427857395"/><line x1="50" x2="780" y1="177.7187433913906" y2="177.7187433913906"/><line x1="50" x2="780" y1="167.12221056614268" y2="167.12221056614268"/><line x1="50" x2="780" y1="157.7754062000733" y2="157.7754062000733"/><line x1="50" x2="780" y1="149.41440478527812" y2="149.41440478527812"/><line x1="50" x2="780" y1="94.40893598001512" y2="94.40893598001512"/><line x1="50" x2="780" y1="62.2327993943489" y2="62.2327993943489"/></g><g aria-label="y-axis tick" fill="none" stroke="currentColor"><path transform="translate(50,332.1386169819317)" d="M0,0L-6,0"/><path transform="translate(50,277.13314817666867)" d="M0,0L-6,0"/><path transform="translate(50,244.95701159100253)" d="M0,0L-6,0"/><path transform="translate(50,222.12767937140572)" d="M0,0L-6,0"/><path transform="translate(50,204.41987359054116)" d="M0,0L-6,0"/><path transform="translate(50,189.9515427857395)" d="M0,0L-6,0"/><path transform="translate(50,177.7187433913906)" d="M0,0L-6,0"/><path transform="translate(50,167.12221056614268)" d="M0,0L-6,0"/><path transform="translate(50,157.7754062000733)" d="M0,0L-6,0"/><path transform="translate(50,149.41440478527812)" d="M0,0L-6,0"/><path transform="translate(50,94.40893598001512)" d="M0,0L-6,0"/><path transform="translate(50,62.2327993943489)" d="M0,0L-6,0"/></g><g aria-label="y-axis tick label" text-anchor="end" font-variant="tabular-nums" transform="translate(-9,0)"><text y="0.32em" transform="translate(50,332.1386169819317)">100m</text><text y="0.32em" transform="translate(50,277.13314817666867)">200m</text><text y="0.32em" transform="translate(50,244.95701159100253)">300m</text><text y="0.32em" transform="translate(50,222.12767937140572)">400m</text><text y="0.32em" transform="translate(50,204.41987359054116)">500m</text><text y="0.32em" transform="translate(50,189.9515427857395)">600m</text><text y="0.32em" transform="translate(50,177.7187433913906)"/><text y="0.32em" transform="translate(50,167.12221056614268)"/><text y="0.32em" transform="translate(50,157.7754062000733)"/><text y="0.32em" transform="translate(50,149.41440478527812)">1</text><text y="0.32em" transform="translate(50,94.40893598001512)">2</text><text y="0.32em" transform="translate(50,62.2327993943489)">3</text></g><g aria-label="y-axis label" text-anchor="start" transform="translate(-47,-17)"><text y="0.71em" transform="translate(50,20)">↑ Daily spending (as a proportion of average daily spending for each pizza category)</text></g><g aria-label="x-axis tick" fill="none" stroke="currentColor"><path transform="translate(50,370)" d="M0,0L0,6"/><path transform="translate(112,370)" d="M0,0L0,6"/><path transform="translate(168,370)" d="M0,0L0,6"/><path transform="translate(230,370)" d="M0,0L0,6"/><path transform="translate(290,370)" d="M0,0L0,6"/><path transform="translate(352.00000000000006,370)" d="M0,0L0,6"/><path transform="translate(412.00000000000006,370)" d="M0,0L0,6"/><path transform="translate(474,370)" d="M0,0L0,6"/><path transform="translate(536,370)" d="M0,0L0,6"/><path transform="translate(596,370)" d="M0,0L0,6"/><path transform="translate(658.0000000000001,370)" d="M0,0L0,6"/><path transform="translate(718.0000000000001,370)" d="M0,0L0,6"/><path transform="translate(780,370)" d="M0,0L0,6"/></g><g aria-label="x-axis tick label" font-variant="tabular-nums" transform="translate(0,9)"><text y="0.71em" transform="translate(50,370)">January</text><text y="0.71em" transform="translate(112,370)">February</text><text y="0.71em" transform="translate(168,370)">March</text><text y="0.71em" transform="translate(230,370)">April</text><text y="0.71em" transform="translate(290,370)">May</text><text y="0.71em" transform="translate(352.00000000000006,370)">June</text><text y="0.71em" transform="translate(412.00000000000006,370)">July</text><text y="0.71em" transform="translate(474,370)">August</text><text y="0.71em" transform="translate(536,370)">September</text><text y="0.71em" transform="translate(596,370)">October</text><text y="0.71em" transform="translate(658.0000000000001,370)">November</text><text y="0.71em" transform="translate(718.0000000000001,370)">December</text><text y="0.71em" transform="translate(780,370)">January</text></g><g aria-label="x-axis label" text-anchor="end" transform="translate(17,27)"><text transform="translate(780,370)">Date →</text></g><g aria-label="rule" stroke="currentColor"><line x1="50" x2="780" y1="149.41440478527812" y2="149.41440478527812"/></g><g aria-label="line" fill="none" stroke-width="2" stroke-linejoin="round" stroke-linecap="round"><path stroke="#D3D3D3" d="M57,160.756L59,155.764L61,151.605L63,151.662L65,149.812L67,149.15L69,150.27L71,153.251L73,157.462L75,161.663L77,162.793L79,165.346L81,167.217L83,169.478L85,169.275L87,170.726L89,172.499L91,170.965L93,171.078L95,170.965L97,169.95L99,169.549L101,167.58L103,167.269L105,168.833L107,169.741L109,168.158L111,167.01L113,168.311L115,166.355L117,164.621L119,161.202L121,161.45L123,163.346L125,166.684L127,166.214L129,167.459L131,164.918L133,162.622L135,160.696L137,159.949L139,156.063L141,153.002L143,152.664L145,151.967L147,155.114L149,153.614L151,154.098L153,156.048L155,159.15L157,160.17L159,164.292L161,164.792L163,166.036L165,165.565L167,165.608L169,165.144L171,164.884L173,163.448L175,163.535L177,164.934L179,164.171L181,161.254L183,160.951L185,159.776L187,155.91L189,155.511L191,153.24L193,152.106L195,151.878L197,147.862L199,147.353L201,150.759L203,150.253L205,150.507L207,149.615L209,150.626L211,151.251L213,149.074L215,146.435L217,146.588L219,145.876L221,143.997L223,143.618L225,143.458L227,145.521L229,147.42L231,146.183L233,148.564L235,150.714L237,152.224L239,153.556L241,155.099L243,156.18L245,157.523L247,157.557L249,159.326L251,160.221L253,161.515L255,159.705L257,160.553L259,160.744L261,159.357L263,160.621L265,159.788L267,160.999L269,164.014L271,164.805L273,166.381L275,167.875L277,167.571L279,169.226L281,167.243L283,167.096L285,168.342L287,168.614L289,168.302L291,167.472L293,165.65L295,168.084L297,165.76L299,165.527L301,164.905L303,165.09L305,165.925L307,166.155L309,164.026L311,164.55L313,163.919L315,164.504L317,161.925L319,161.082L321,163.383L323,163.227L325,164.01L327,161.949L329,160.434L331,159.988L333,158.894L335,156.225L337,156.862L339,154.568L341,154.696L343,154.022L345,155.596L347,157.378L349,157.409L351,156.858L353,158.707L355,158.983L357,159.866L359,158.769L361,159.291L363,160.51L365,162.687L367,161.655L369,162.248L371,161.683L373,164.646L375,162.875L377,160.931L379,160.02L381,160.308L383,160.28L385,160.847L387,158.433L389,160.241L391,161.29L393,159.886L395,161.322L397,162.809L399,161.394L401,163.84L403,162.269L405,162.875L407,162.695L409,161.102L411,160.454L413,162.659L415,161.643L417,162.236L419,162.997L421,163.194L423,162.585L425,160.648L427,158.991L429,157.963L431,157.401L433,155.485L435,154.892L437,154.822L439,154.3L441,156.041L443,155.077L445,154.091L447,153.4L449,153.992L451,152.013L453,151.796L455,151.956L457,153.349L459,153.857L461,154.267L463,154.873L465,155.805L467,154.626L469,150.63L471,147.042L473,146.055L475,144.751L477,144.365L479,143.337L481,142.92L483,144.835L485,145.58L487,144.728L489,144.751L491,143.312L493,143.292L495,145.995L497,144.036L499,143.75L501,145.213L503,145.384L505,143.526L507,142.717L509,140.679L511,142.105L513,142.872L515,140.697L517,139.432L519,142.165L521,141.87L523,140.985L525,139.752L527,139.072L529,140.404L531,141.174L533,139.954L535,141.551L537,141.044L539,141.05L541,141.857L543,142.005L545,142.108L547,141.857L549,141.945L551,142.521L553,142.895L555,143.404L557,143.699L559,143.334L561,142.844L563,141.488L565,144.033L567,144.952L569,144.055L571,143.283L573,143.251L575,145.613L577,145.132L579,143.27L581,143.187L583,144.31L585,144.049L587,146.356L589,143.756L591,144.754L593,145.266L595,145.613L597,145.328L599,146.831L601,145.334L603,147.099L605,148.377L607,145.755L609,143.442L611,142.316L613,141.019L615,140.815L617,138.993L619,137.191L621,136.732L623,137.588L625,137.271L627,137.07L629,136.281L631,133.197L633,131.049L635,131.669L637,129.404L639,129.105L641,127.34L643,125.941L645,126.882L647,125.774L649,124.642L651,125.979L653,124.216L655,125.918L657,126.046L659,126.942L661,130.735L663,133.959L665,135.078L667,138.181L669,137.292L671,138.978L673,140.38L675,140.731L677,139.196L679,139.396L681,140.935L683,140.87L685,142.209L687,143.772L689,142.303L691,141.392L693,140.183L695,137.609L697,138.712L699,136.855L701,135.754L703,135.058L705,135.896L707,136.603L709,137.817L711,137.57L713,137.606L715,136.929L717,139.299L719,139.905L721,138.724L723,137.404L725,136.132L727,135.413L729,135.528L731,131.675L733,128.097L735,127.131L737,126.714L739,126.015L741,125.435L743,123.891L745,122.679L747,123.081L749,123.296L751,123.356L753,123.694L755,123.49L757,124.206L759,126.507L761,126.231L763,128.042L765,128.449L767,129.244L769,131.107L771,131.725L773,135.801"/><path stroke="#D3D3D3" d="M57,129.28L59,121.069L61,116.8L63,116.76L65,113.69L67,111.503L69,109.403L71,111.54L73,119.115L75,124.93L77,125.251L79,127.969L81,132.62L83,138.481L85,141.813L87,140.615L89,137.571L91,139.105L93,139.829L95,136.619L97,131.369L99,128.478L101,127.116L103,132.875L105,134.72L107,138.02L109,142.132L111,146.831L113,145.785L115,143.007L117,139.253L119,134.17L121,130.727L123,125.233L125,122.51L127,126.029L129,126.861L131,123.943L133,123.908L135,125.841L137,131.062L139,129.092L141,127.997L143,128.598L145,128.283L147,128.952L149,128.357L151,128.487L153,132.269L155,135.062L157,136.23L159,140.14L161,143.175L163,147.866L165,145.947L167,149.096L169,149L171,151.925L173,151.8L175,150.382L177,147.394L179,148.27L181,148.104L183,145.073L185,141.78L187,136.743L189,132.708L191,130.918L193,127.62L195,122.657L197,119.322L199,116.704L201,121.06L203,123.742L205,125.028L207,127.831L209,132.532L211,135.73L213,136.805L215,135.628L217,134.28L219,132.61L221,132.894L223,133.317L225,135.801L227,142.652L229,144.243L231,149.53L233,151.925L235,153.512L237,155.001L239,154.137L241,151.032L243,155.391L245,156.704L247,162.186L249,165.963L251,168.58L253,173.333L255,174.22L257,172.715L259,172.424L261,170.684L263,168.888L265,167.784L267,170.794L269,174.104L271,178.616L273,182.882L275,182.68L277,185.847L279,185.694L281,187.352L283,192.192L285,191.779L287,192.608L289,192.9L291,187.978L293,185.542L295,181.332L297,180.595L299,177.129L301,169.773L303,171.064L305,170.921L307,172.553L309,171.175L311,165.075L313,165.311L315,168.503L317,162.115L319,162.427L321,160.57L323,161.185L325,162.171L327,159.892L329,161.283L331,166.187L333,167.147L335,169.711L337,168.028L339,173.595L341,174.27L343,171.254L345,169.275L347,171.414L349,167.571L351,166.008L353,155.743L355,154.317L357,155.131L359,153.144L361,148.988L363,150.028L365,152.012L367,158.093L369,160.251L371,159.192L373,159.548L375,162.342L377,162.827L379,157.436L381,159.768L383,163.113L385,164.562L387,169.836L389,170.243L391,172.667L393,181.967L395,179.794L397,176.176L399,179.635L401,175.217L403,172.667L405,170.463L407,166.951L409,163.994L411,162.541L413,159.452L415,159.521L417,163.013L419,163.632L421,165.622L423,170.117L425,172.634L427,172.408L429,173.203L431,172.327L433,169.306L435,165.696L437,158.201L439,152.929L441,152.175L443,151.354L445,148.27L447,151.18L449,149.397L451,156.453L453,164.154L455,165.711L457,167.435L459,165.918L461,167.163L463,167.541L465,162.841L467,158.107L469,157.449L471,157.569L473,162.841L475,165.178L477,175.889L479,183.363L481,190.35L483,189.967L485,190.067L487,179.741L489,174.584L491,167.253L493,161.803L495,159.288L497,158.688L499,157.797L501,160.975L503,163.502L505,165.666L507,165.592L509,167.541L511,166.591L513,168.595L515,171.016L517,169.57L519,168.365L521,163.892L523,161.031L525,158.363L527,158.201L529,159.124L531,157.636L533,157.342L535,165.636L537,163.69L539,169.508L541,161.115L543,156.704L545,156.598L547,156.045L549,150.983L551,149.458L553,147.795L555,149.325L557,152.79L559,148.676L561,146.527L563,143.555L565,146.341L567,143.354L569,145.751L571,142.896L573,144.265L575,142.685L577,143.735L579,140.205L581,139.498L583,137.467L585,135.456L587,131.852L589,130.431L591,132.454L593,129.402L595,129.13L597,126.78L599,126.98L601,130.327L603,132.737L605,133.871L607,134.941L609,137.488L611,141.43L613,140.582L615,142.618L617,142.32L619,140.216L621,144.982L623,142.297L625,143.342L627,147.937L629,147.783L631,148.163L633,149.615L635,150.003L637,152.526L639,149.482L641,151.02L643,154.742L645,155.73L647,161.073L649,160.418L651,159.768L653,167.087L655,163.733L657,158.498L659,157.65L661,152.903L663,155.287L665,160.141L667,162.927L669,166.067L671,165.933L673,170.953L675,173.072L677,170.495L679,167.998L681,162.898L683,161.592L685,163.892L687,161.269L689,159.356L691,158.417L693,156.572L695,154.176L697,153.296L699,150.15L701,147.124L703,141.146L705,138.198L707,135.822L709,133.515L711,134.66L713,132.386L715,134.429L717,133.971L719,132.61L721,132.835L723,136.056L725,135.355L727,137.001L729,134.891L731,136.291L733,139.658L735,139.658L737,132.61L739,129.308L741,128.45L743,129.957L745,130.175L747,126.345L749,129.74L751,133.742L753,135.122L755,136.056L757,133.406L759,133.436L761,135.042L763,130.099L765,131.196L767,131.417L769,130.755L771,132.64L773,133.971"/><path stroke="#D3D3D3" d="M57,149.148L59,149.387L61,149.753L63,151.303L65,151.611L67,151.244L69,149.507L71,147.824L73,148.072L75,146.709L77,146.392L79,145.963L81,145.515L83,145.807L85,146.712L87,144.717L89,145.189L91,144.947L93,145.76L95,145.817L97,145.92L99,145.927L101,147.184L103,148.077L105,148.162L107,148.336L109,149.227L111,149.3L113,149.111L115,150.114L117,149.849L119,150.28L121,149.955L123,149.567L125,149.527L127,150.023L129,148.713L131,147.882L133,144.811L135,144.32L137,144.14L139,143.723L141,143.035L143,143.621L145,144.063L147,146.186L149,145.44L151,145.446L153,145.299L155,145.003L157,144.827L159,144.791L161,145.673L163,146.44L165,147.81L167,148.822L169,148.587L171,148.898L173,150.352L175,150.177L177,150.971L179,150.606L181,150.245L183,150.413L185,151.069L187,148.088L189,147.875L191,147.146L193,147.642L195,147.89L197,148.161L199,148.445L201,151.272L203,151.166L205,151.405L207,150.539L209,149.511L211,148.144L213,146.476L215,146.386L217,146.361L219,145.995L221,146.612L223,147.246L225,147.695L227,148.619L229,149.086L231,148.999L233,149.298L235,148.865L237,150.053L239,151.132L241,152.238L243,152.544L245,153.865L247,154.159L249,153.988L251,152.752L253,151.497L255,151.012L257,150.579L259,149.678L261,150.193L263,148.951L265,148.917L267,149.167L269,147.972L271,147.217L273,147.439L275,146.469L277,147.471L279,146.816L281,146.328L283,147.04L285,147.789L287,148.245L289,149.11L291,149.112L293,150.634L295,151.358L297,150.924L299,151.902L301,150.63L303,150.162L305,150.614L307,149.192L309,148.891L311,148.883L313,148.456L315,149.466L317,148.246L319,147.025L321,147.916L323,147.24L325,148.069L327,148.133L329,147.589L331,148.952L333,149.7L335,149.243L337,148.979L339,148.139L341,146.91L343,147.661L345,147.806L347,147.51L349,146.329L351,146.815L353,145.73L355,145.527L357,144.206L359,143.318L361,143.815L363,144.775L365,145.762L367,147.121L369,147.383L371,146.216L373,146.655L375,145.586L377,146.253L379,146.307L381,145.871L383,145.052L385,146.426L387,146.196L389,145.885L391,145.447L393,145.091L395,145.501L397,146.635L399,146.481L401,146.509L403,147.224L405,146.964L407,146.677L409,146.093L411,146.172L413,145.972L415,145.496L417,145.543L419,145.676L421,146.264L423,146.457L425,145.263L427,146.262L429,146.144L431,146.511L433,145.74L435,145.138L437,143.937L439,144.317L441,144.328L443,145.131L445,145.181L447,146.07L449,145.921L451,145.809L453,146.272L455,145.674L457,145.568L459,145.336L461,144.436L463,143.751L465,144.65L467,145.508L469,145.685L471,145.571L473,145.637L475,146.239L477,146.864L479,147.325L481,146.284L483,146.936L485,146.575L487,146.947L489,147.601L491,148.248L493,149.081L495,150.091L497,150.216L499,150.442L501,150.4L503,150.399L505,150.452L507,150.294L509,149.447L511,148.487L513,149.426L515,149.896L517,148.649L519,148.649L521,148.293L523,149.804L525,150.471L527,150.141L529,150.381L531,151.101L533,150.438L535,150.686L537,149.645L539,149.323L541,149.274L543,148.212L545,148.544L547,149.352L549,149.082L551,149.757L553,150.996L555,150.563L557,150.918L559,151.316L561,151.035L563,150.865L565,150.182L567,149.72L569,150.758L571,150.315L573,149.537L575,150.397L577,151.207L579,152.17L581,151.804L583,150.654L585,152.108L587,152.223L589,152.797L591,152.697L593,152.236L595,153.494L597,153.947L599,153.491L601,153.524L603,152.671L605,152.903L607,151.683L609,150.768L611,151.284L613,151.089L615,151.401L617,151.18L619,151.429L621,152.476L623,152.202L625,152.71L627,152.014L629,152.727L631,151.939L633,151.258L635,153.389L637,154.188L639,153.369L641,153.927L643,152.369L645,153.845L647,153.532L649,151.444L651,150.805L653,151.979L655,152.324L657,151.905L659,150.959L661,152.126L663,154.206L665,154.533L667,153.312L669,152.89L671,154.839L673,156.166L675,155.043L677,152.242L679,151.741L681,151.372L683,151.353L685,150.5L687,150.252L689,150.515L691,149.826L693,150.734L695,150.353L697,151.326L699,151.519L701,151.985L703,151.308L705,152.436L707,151.947L709,152.405L711,152.423L713,151.412L715,150.147L717,151.532L719,151.611L721,150.838L723,151.822L725,151.566L727,152.73L729,154.303L731,154.486L733,154.952L735,156.099L737,156.574L739,156.86L741,157.736L743,158.876L745,158.449L747,159.121L749,158.884L751,157.594L753,157.125L755,157.786L757,156.025L759,157.645L761,158.139L763,158.691L765,159.787L767,160.655L769,160.349L771,162.678L773,166.343"/><path stroke="#D3D3D3" d="M57,153.31L59,154.031L61,155.098L63,154.917L65,156.002L67,155.536L69,154.736L71,155.59L73,154.005L75,151.532L77,150.974L79,150.284L81,150.562L83,150.577L85,151.532L87,151.467L89,153.106L91,152.947L93,152.415L95,150.6L97,148.882L99,147.706L101,146.423L103,145.468L105,144.115L107,144.181L109,145.316L111,145.962L113,146.236L115,146.593L117,147.3L119,148.263L121,149.013L123,147.919L125,147.251L127,146.785L129,146.572L131,144.814L133,142.169L135,140.706L137,141.915L139,142.742L141,141.873L143,142.989L145,144.628L147,146.927L149,147.738L151,147.033L153,147.352L155,147.968L157,146.941L159,145.094L161,145.875L163,144.861L165,145.001L167,143.732L169,143.715L171,142.988L173,143.877L175,143.197L177,143.296L179,142.989L181,143.403L183,143.591L185,145.383L187,143.603L189,143.933L191,144.162L193,144.744L195,145.829L197,145.565L199,145.831L201,149.298L203,150.018L205,152.188L207,152.471L209,151.902L211,151.353L213,151.049L215,151.38L217,151.931L219,150.653L221,150.523L223,150.453L225,150.402L227,149.595L229,149.796L231,148.132L233,148.19L235,146.954L237,146.439L239,146.94L241,147.746L243,147.374L245,148.252L247,148.161L249,148.86L251,148.187L253,146.85L255,145.653L257,144.132L259,143.087L261,142.289L263,141.892L265,142.15L267,142.135L269,142.155L271,142.889L273,143.142L275,142.468L277,141.498L279,140.702L281,140.578L283,140.171L285,140.646L287,140.238L289,140.095L291,141.193L293,142.576L295,143.668L297,143.758L299,142.6L301,142.144L303,143.995L305,143.905L307,142.486L309,140.861L311,140.638L313,140.842L315,141.637L317,141.061L319,140.784L321,141.762L323,142.723L325,143.058L327,144.489L329,144.398L331,144.018L333,143.746L335,143.398L337,143.825L339,144.106L341,142.74L343,143.418L345,142.882L347,143.051L349,143.401L351,142.901L353,142.316L355,142.646L357,142.974L359,143.808L361,143.587L363,143.825L365,144.129L367,143.78L369,144.527L371,142.609L373,143.283L375,144.063L377,143.248L379,143.245L381,144.169L383,143.948L385,146.14L387,146.006L389,146.398L391,146.154L393,145.323L395,143.91L397,143.907L399,143.491L401,143.217L403,142.025L405,142.396L407,142.988L409,145.845L411,146.839L413,146.805L415,145.946L417,146.839L419,146.627L421,147.185L423,145.941L425,144.919L427,145.276L429,145.862L431,147.403L433,149.039L435,148.031L437,149.502L439,150.649L441,149.828L443,149.309L445,148.187L447,147.677L449,148.337L451,147.815L453,146.6L455,146.382L457,147.013L459,146.69L461,146.063L463,145.891L465,144.663L467,144.893L469,145.376L471,145.836L473,145.754L475,145.8L477,147.389L479,148.853L481,149.216L483,150.213L485,151.784L487,152.111L489,153.633L491,153.776L493,153.168L495,155.172L497,154.481L499,152.986L501,153.717L503,152.86L505,152.359L507,154.143L509,152.148L511,152.703L513,153.093L515,153.196L517,153.984L519,154.041L521,153.297L523,154.716L525,154.671L527,153.562L529,153.474L531,153.12L533,153.617L535,153.03L537,151.981L539,151.876L541,151.847L543,151.631L545,151.258L547,151.025L549,149.339L551,149.491L553,148.013L555,148.895L557,148.797L559,147.849L561,147.094L563,148.772L565,148.952L567,150.011L569,148.79L571,148.309L573,150.217L575,151.866L577,150.605L579,149.714L581,150.54L583,150.575L585,150.983L587,149.733L589,147.298L591,148.494L593,148.836L595,148.362L597,148.544L599,149.081L601,150.585L603,152.618L605,153.32L607,153.523L609,154.098L611,154.566L613,154.607L615,154.726L617,153.221L619,151.9L621,151.74L623,152.421L625,153.791L627,153.766L629,153.285L631,153.303L633,155.11L635,157.805L637,156.356L639,155.917L641,156.77L643,156.686L645,157.461L647,157.205L649,156.172L651,156.044L653,156.022L655,155.18L657,154.528L659,154.704L661,153.948L663,156.174L665,157.035L667,156.228L669,155.022L671,154.437L673,154.55L675,154.645L677,151.374L679,151.985L681,153.672L683,154.806L685,155.992L687,157.227L689,157.019L691,156.159L693,156.291L695,155.895L697,155.388L699,155.624L701,155.887L703,157.621L705,159.527L707,159.577L709,159.712L711,160.257L713,159.837L715,160.66L717,160.406L719,159.839L721,160.246L723,159.998L725,160.444L727,161.55L729,161.188L731,161.242L733,163.584L735,162.816L737,164L739,164.061L741,163.352L743,162.404L745,163.918L747,161.585L749,161.684L751,160.274L753,159.518L755,160.157L757,160.189L759,159.163L761,159.826L763,159.407L765,159.573L767,161.17L769,160.823L771,161.5L773,164.997"/><path stroke="#D3D3D3" d="M57,158.648L59,159.911L61,161.041L63,161.658L65,160.988L67,162.74L69,163.616L71,163.237L73,162.729L75,162.562L77,161.849L79,163.029L81,163.374L83,160.639L85,160.476L87,158.162L89,157.736L91,157.406L93,155.69L95,154.882L97,156.132L99,156.189L101,156.713L103,154.798L105,154.818L107,155.023L109,154.09L111,153.48L113,153.618L115,153.63L117,154.506L119,154.352L121,154.795L123,154.69L125,153.666L127,152.948L129,153.533L131,152.538L133,150.333L135,149.943L137,150.652L139,152.815L141,152.962L143,151.419L145,153.043L147,155.225L149,155.47L151,156.655L153,155.947L155,155.265L157,156.303L159,155.989L161,156.625L163,155.465L165,154.737L167,153.508L169,153.681L171,153.122L173,152.586L175,151.224L177,151.122L179,150.122L181,150.622L183,150.628L185,151.122L187,149.746L189,150.795L191,151.419L193,152.519L195,152.769L197,153.753L199,154.341L201,157.516L203,157.625L205,157.521L207,157.213L209,157.228L211,156.318L213,155.599L215,155.491L217,154.742L219,155.054L221,154.057L223,154.044L225,153.601L227,153.685L229,153.348L231,153.908L233,152.891L235,153.022L237,151.835L239,150.499L241,149.17L243,147.568L245,147.478L247,149.395L249,148.776L251,148.829L253,148.671L255,149.706L257,151.148L259,150.128L261,149.175L263,150.219L265,149.858L267,150.318L269,148.999L271,147.225L273,147.606L275,146.27L277,144.918L279,144.96L281,144.244L283,145.117L285,146.614L287,146.442L289,146.645L291,147.305L293,147.679L295,149.18L297,149.796L299,149.935L301,149.497L303,150.449L305,150.796L307,150.18L309,149.638L311,149.675L313,150.261L315,149.945L317,149.688L319,148.303L321,149.592L323,149.386L325,149.152L327,148.568L329,148.642L331,148.138L333,150.47L335,149.671L337,150.871L339,149.268L341,149.916L343,150.804L345,150.939L347,150.389L349,150.557L351,149.979L353,150.78L355,149.821L357,149.358L359,148.869L361,149.65L363,150.081L365,149.785L367,150.795L369,151.848L371,152.376L373,153.933L375,153.382L377,153.437L379,152.961L381,153.839L383,152.714L385,152.53L387,152.592L389,152.753L391,152.401L393,153.837L395,154.378L397,155.838L399,156.553L401,156.982L403,156.96L405,156.466L407,156.389L409,154.81L411,152.962L413,152.237L415,151.562L417,151.014L419,152.222L421,151.821L423,152.331L425,154.368L427,155.746L429,155.824L431,155.822L433,155.653L435,155.857L437,154.912L439,154.154L441,153.186L443,153.186L445,154.093L447,154.9L449,155.383L451,155.23L453,155.005L455,155.897L457,155.807L459,154.06L461,152.574L463,150.488L465,149.344L467,149.577L469,148.897L471,149.075L473,149.718L475,149.874L477,150.282L479,151.091L481,149.988L483,149.784L485,148.961L487,148.946L489,148.17L491,148.363L493,147.851L495,147.18L497,147.067L499,147.121L501,146.934L503,147.264L505,146.458L507,146.122L509,146.107L511,145.832L513,145.74L515,144.816L517,143.989L519,144.122L521,143.937L523,143.98L525,143.553L527,143.915L529,144.548L531,145.622L533,146.983L535,146.853L537,146.429L539,146.201L541,145.155L543,144.459L545,143.718L547,141.875L549,142.778L551,144.014L553,143.595L555,143.773L557,144.505L559,145.143L561,145.966L563,147.405L565,147.384L567,147.498L569,147.669L571,147.085L573,146.804L575,147.086L577,144.785L579,143.606L581,143.716L583,143.757L585,143.937L587,143.281L589,143.007L591,143.467L593,144.01L595,144.117L597,143.343L599,143.549L601,143.988L603,143.443L605,144.254L607,143.468L609,144.463L611,145.93L613,145.275L615,146.011L617,145.744L619,145.655L621,146.205L623,145.418L625,144.159L627,146.048L629,145.518L631,144.766L633,144.428L635,145.363L637,145.16L639,144.893L641,144.005L643,143.978L645,145.214L647,145.775L649,145.013L651,145.027L653,146.91L655,145.935L657,145.585L659,145.547L661,144.453L663,145.664L665,146.284L667,144.583L669,144.51L671,144.513L673,145.742L675,146.05L677,142.91L679,142.749L681,143.781L683,144.747L685,145.001L687,144.719L689,144.213L691,145.189L693,145.459L695,144.938L697,145.323L699,145.686L701,145.829L703,147.797L705,149.251L707,149.604L709,150.429L711,149.572L713,149.05L715,149.259L717,146.527L719,145.319L721,144.458L723,143.438L725,143.015L727,143.097L729,142.702L731,142.318L733,141.777L735,141.293L737,142.03L739,141.485L741,140.632L743,139.889L745,140.253L747,140.436L749,140.028L751,138.886L753,139.624L755,139.96L757,139.434L759,140.269L761,140.135L763,140.717L765,141.211L767,141.748L769,142.139L771,142.254L773,145.428"/><path stroke="#D3D3D3" d="M57,140.374L59,138.429L61,134.396L63,133.861L65,133.545L67,135.062L69,137.46L71,140.363L73,142.251L75,147.083L77,148.279L79,147.541L81,147.901L83,147.428L85,146.303L87,147.637L89,147.368L91,147.661L93,149.317L95,148.298L97,147.553L99,148.189L101,147.53L103,146.438L105,147.428L107,149.39L109,153.77L111,154.379L113,154.204L115,153.808L117,154.659L119,152.139L121,151.127L123,149.049L125,149.238L127,151.716L129,154.503L131,157.208L133,154.777L135,154.614L137,155.335L139,153.964L141,150.821L143,146.297L145,144.893L147,150.61L149,150.908L151,149.992L153,154.171L155,156.517L157,162.544L159,164.339L161,163.883L163,165.514L165,167.325L167,166.282L169,166.01L171,164.539L173,162.826L175,161.214L177,162.739L179,161.812L181,161.648L183,161.455L185,164.266L187,163.979L189,164.999L191,164.694L193,164.902L195,163.824L197,164.17L199,162.141L201,166.168L203,165.066L205,163.422L207,163.546L209,166.085L211,163.663L213,163.393L215,160.276L217,161.991L219,161.199L221,159.321L223,155.93L225,156.436L227,155.059L229,153.938L231,153.628L233,155.917L235,154.36L237,154.908L239,156.785L241,155.917L243,154.875L245,154.803L247,150.877L249,151.817L251,152.864L253,152.966L255,156.31L257,157.94L259,159.619L261,162.005L263,163.949L265,164.067L267,163.196L269,158.61L271,158.83L273,156.01L275,152.877L277,151.227L279,151.152L281,151.547L283,153.731L285,156.116L287,156.03L289,159.605L291,160.486L293,160.444L295,157.398L297,154.705L299,151.981L301,154.028L303,153.235L305,151.258L307,151.039L309,151.647L311,154.666L313,155.738L315,156.296L317,157.56L319,159.982L321,160.641L323,163.949L325,163.993L327,162.884L329,159.647L331,159.217L333,161.555L335,161.051L337,160.409L339,159.696L341,161.984L343,162.508L345,161.912L347,159.912L349,159.724L351,159.557L353,159.682L355,157.641L357,159.828L359,157.872L361,158.954L363,157.988L365,157.458L367,158.186L369,160.142L371,160.163L373,159.814L375,159.515L377,159.501L379,156.818L381,152.947L383,152.266L385,151.252L387,153.737L389,151.912L391,152.985L393,156.063L395,161.206L397,160.923L399,159.051L401,158.254L403,160.676L405,158.768L407,158.975L409,157.893L411,156.45L413,158.679L415,156.456L417,157.027L419,159.258L421,157.513L423,157.519L425,159.113L427,156.116L429,158.063L431,156.557L433,152.819L435,151.177L437,150.554L439,149.739L441,148.994L443,148.915L445,150.405L447,152.711L449,156.832L451,155.93L453,156.256L455,158.892L457,160.874L459,158.693L461,158.521L463,157.696L465,160.521L467,162.034L469,162.674L471,161.541L473,161.648L475,163.145L477,160.867L479,160.542L481,159.418L483,158.658L485,157.519L487,158.206L489,157.587L491,159.501L493,158.542L495,161.626L497,163.255L499,166.078L501,168.18L503,168.997L505,169.681L507,169.871L509,165.193L511,165.807L513,165.837L515,163.956L517,161.058L519,159.619L521,157.567L523,156.718L525,155.864L527,152.603L529,152.628L531,156.517L533,158.61L535,159.912L537,161.107L539,157.865L541,159.564L543,160.226L545,160.994L547,159.8L549,155.718L551,157.323L553,157.879L555,155.844L557,154.431L559,148.279L561,146.869L563,146.433L565,144.91L567,143.394L569,143.558L571,139.161L573,142.023L575,142.402L577,143.377L579,142.891L581,144.335L583,144.639L585,147.416L587,148.129L589,146.716L591,147.583L593,144.951L595,145.7L597,147.214L599,149.998L601,148.027L603,148.249L605,150.653L607,153.107L609,153.434L611,152.063L613,149.28L615,150.399L617,151.189L619,148.612L621,147.805L623,146.728L625,145.2L627,145.084L629,144.335L631,143.083L633,142.414L635,142.514L637,140.834L639,140.511L641,140.058L643,137.845L645,138.089L647,138.12L649,134.914L651,135.072L653,135.784L655,135.327L657,135.113L659,131.969L661,129.996L663,131.582L665,130.486L667,128.423L669,127.397L671,126.416L673,126.347L675,124.611L677,121.656L679,121.466L681,122.793L683,122.262L685,122.144L687,123.474L689,124.906L691,125.497L693,125.375L695,122.946L697,125.118L699,125.091L701,123.549L703,121.898L705,123.196L707,125.298L709,127.318L711,124.575L713,123.925L715,123.293L717,123.81L719,122.101L721,119.27L723,117.545L725,120.136L727,123.258L729,124.951L731,128.507L733,130.404L735,132.348L737,135.939L739,135.764L741,132.447L743,132.452L745,127.36L747,128.394L749,128.95L751,129.182L753,128.893L755,131.568L757,132.545L759,137.161L761,139.728L763,140.167L765,139.312L767,140.167L769,139.782L771,139.863L773,142.666"/><path stroke="#D3D3D3" d="M57,149.182L59,149.297L61,148.184L63,149.146L65,149.03L67,148.023L69,147.849L71,148.666L73,148.028L75,148.418L77,147.619L79,147.022L81,146.921L83,146.643L85,146.174L87,145.647L89,147.002L91,147.691L93,147.984L95,147.879L97,149.022L99,148.509L101,149.565L103,148.635L105,148.308L107,148.112L109,148.324L111,146.668L113,146.831L115,146.929L117,147.883L119,147.172L121,147.267L123,147.307L125,148.044L127,147.945L129,147.396L131,145.795L133,143.479L135,143.783L137,144.225L139,144.485L141,144.743L143,144.549L145,143.683L147,145.496L149,144.56L151,143.765L153,143.294L155,142.033L157,140.198L159,140.999L161,141.372L163,141.63L165,141.908L167,141.896L169,142.159L171,143.267L173,143.482L175,144.207L177,143.606L179,143.597L181,143.827L183,144.084L185,144.988L187,142.882L189,141.928L191,142.934L193,142.494L195,142.217L197,141.665L199,141.163L201,144.958L203,145.65L205,145.881L207,146.466L209,146.548L211,145.416L213,145.973L215,146.369L217,146.435L219,146.284L221,146.476L223,147.705L225,148.802L227,148.772L229,149.005L231,148.814L233,147.996L235,147.365L237,146.905L239,145.722L241,145.154L243,143.887L245,143.503L247,143.956L249,144.646L251,144.062L253,144.86L255,145.93L257,146.269L259,147.184L261,147.067L263,146.073L265,146.72L267,146.507L269,145.608L271,145.231L273,144.358L275,144.398L277,145.615L279,144.233L281,144.48L283,145.654L285,144.773L287,144.89L289,143.966L291,143.279L293,144.892L295,146.418L297,145.622L299,145.303L301,145.276L303,145.984L305,145.545L307,145.126L309,143.018L311,142.37L313,143.516L315,144.143L317,143.613L319,143.461L321,143.582L323,142.937L325,143.514L327,144.797L329,143.93L331,144.405L333,145.519L335,144.78L337,146.328L339,145.771L341,144.204L343,143.774L345,144.151L347,143.266L349,142.639L351,143.026L353,143.677L355,144.668L357,145.733L359,144.698L361,145.866L363,147.676L365,146.841L367,146.455L369,147.176L371,146.062L373,145.958L375,146.131L377,145.35L379,145.638L381,145.207L383,144.394L385,144.91L387,146.163L389,146.039L391,145.117L393,145.369L395,145.076L397,143.773L399,143.449L401,143.561L403,142.85L405,144.236L407,143.277L409,144.083L411,145.22L413,146.469L415,146.976L417,145.836L419,145.243L421,146.943L423,147.558L425,146.998L427,146.514L429,145.565L431,146.425L433,147.612L435,147.686L437,147.138L439,147.654L441,148.672L443,149.02L445,149.284L447,148.766L449,148.315L451,148.3L453,148.484L455,148.234L457,148.163L459,147.313L461,146.963L463,147.775L465,148.599L467,149.203L469,149.518L471,149.426L473,150.561L475,151.313L477,150.678L479,151.209L481,150.499L483,150.837L485,150.606L487,151.419L489,150.634L491,151.282L493,150.036L495,149.985L497,149.903L499,150.812L501,150.557L503,149.588L505,148.29L507,148.881L509,148.111L511,147.491L513,148.199L515,147.903L517,148.929L519,149.224L521,150.407L523,152.063L525,150.899L527,150.424L529,150.666L531,151.002L533,151.978L535,150.371L537,149.995L539,151.616L541,151.053L543,151.015L545,151.14L547,150.489L549,151.022L551,151.394L553,150.99L555,150.822L557,151.653L559,151.024L561,149.901L563,149.815L565,148.741L567,148.929L569,148.982L571,147.928L573,148.137L575,149.515L577,150.591L579,151.31L581,151.629L583,151.857L585,152.05L587,152.22L589,151.141L591,150.662L593,151.844L595,151.992L597,151.781L599,152.798L601,153.574L603,155.588L605,155.412L607,153.732L609,154.213L611,155.398L613,154.516L615,154.598L617,153.172L619,153.756L621,154.523L623,154.949L625,154.816L627,155.879L629,155.828L631,156.486L633,156.411L635,156.803L637,155.99L639,156.05L641,155.525L643,156.205L645,157.899L647,158.21L649,159.985L651,161.382L653,162.774L655,164.587L657,164.194L659,163.74L661,164.759L663,165.027L665,163.587L667,162.143L669,161.135L671,162.039L673,161.445L675,161.866L677,159.293L679,159.464L681,160.179L683,159.768L685,158.566L687,160.001L689,159.6L691,159.585L693,160.96L695,159.943L697,159.538L699,159.872L701,160.301L703,161.371L705,162.437L707,160.962L709,161.319L711,162.437L713,161.5L715,160.8L717,159.514L719,159.392L721,158.844L723,158.286L725,158.035L727,158.849L729,159.107L731,157.697L733,157.283L735,158.689L737,159.8L739,159.44L741,158.774L743,157.414L745,159.044L747,157.975L749,157.089L751,155.766L753,154.757L755,155.462L757,154.789L759,154.419L761,153.043L763,153.359L765,153.913L767,155.399L769,155.75L771,157.362L773,160.813"/><path stroke="#D3D3D3" d="M57,116.76L59,116.508L61,114.579L63,113.654L65,112.702L67,112.365L69,109.524L71,107.97L73,106.241L75,105.184L77,105.469L79,106.292L81,106.349L83,108.323L85,111.26L87,113.555L89,119.375L91,120.513L93,123.341L95,126.801L97,127.301L99,128.641L101,128.791L103,126.107L105,126.53L107,125.232L109,123.672L111,121.632L113,119.683L115,122.998L117,124.231L119,121.234L121,122.045L123,122.108L125,123.334L127,124.402L129,124.33L131,124.174L133,123.054L135,120.418L137,119.015L139,120.08L141,120.141L143,118.195L145,117.985L147,121.371L149,125.03L151,129.04L153,129.426L155,131.166L157,132.416L159,134.62L161,134.272L163,132.393L165,132.763L167,132.858L169,130.111L171,136.008L173,138.222L175,139.125L177,140.195L179,139.426L181,140.343L183,143.557L185,141.933L187,134.401L189,133.407L191,131.828L193,130.949L195,130.257L197,127.028L199,123.962L201,128.252L203,130.518L205,131.843L207,134.24L209,135.761L211,134.571L213,135.811L215,133.431L217,132.637L219,132.204L221,129.365L223,128.791L225,131.687L227,133.192L229,134.087L231,134.152L233,133.742L235,135.229L237,135.646L239,134.45L241,130.88L243,132.416L245,132.613L247,132.22L249,133.112L251,132.322L253,130.633L255,132.345L257,131.337L259,130.403L261,130.911L263,128.401L265,128.679L267,129.449L269,130.973L271,134.717L273,137.245L275,139.451L277,142.53L279,143.666L281,148.81L283,144.376L285,141.765L287,140.552L289,141.358L291,141.553L293,141.209L295,139.417L297,145.066L299,147.781L301,148.675L303,150.364L305,152.364L307,155.904L309,159.179L311,157.682L313,160.851L315,161.621L317,161.655L319,160.739L321,161.246L323,162.802L325,171.006L327,169.572L329,172.102L331,169.66L333,169.121L335,167.88L337,165.647L339,165.3L341,165.074L343,166.332L345,165.982L347,170.166L349,170.751L351,172.323L353,169.849L355,170.052L357,167.352L359,169.938L361,166.259L363,166.151L365,164.352L367,165.73L369,169.976L371,170.559L373,173.003L375,176.989L377,177.822L379,181.843L381,181.711L383,181.96L385,184.484L387,181.975L389,181.156L391,176.521L393,175.281L395,174.783L397,170.254L399,166.175L401,167.352L403,167.157L405,168.127L407,164.082L409,161.963L411,163.056L413,164.955L415,164.612L417,162.871L419,162.18L421,164.778L423,167.463L425,168.498L427,166.586L429,165.694L431,166.586L433,167.365L435,165.934L437,164.352L439,160.705L441,163.626L443,159.555L445,159.855L447,161.133L449,161.735L451,157.078L453,157.746L455,155.883L457,155.619L459,148.781L461,144.486L463,143.838L465,144.551L467,142.227L469,140.744L471,141.112L473,145.242L475,147.381L477,145.911L479,142.352L481,137.145L483,139.675L485,138.877L487,135.704L489,134.28L491,134.071L493,132.795L495,137.455L497,134.256L499,132.692L501,135.844L503,136.297L505,135.868L507,136.471L509,137.892L511,138.664L513,140.744L515,139.675L517,140.744L519,137.086L521,141.226L523,138.971L525,140.282L527,140.308L529,142.423L531,143.258L533,149.422L535,149.315L537,151.138L539,149.13L541,151.799L543,152.902L545,154.021L547,156.138L549,160.907L551,162.906L553,164.955L555,165.587L557,164.813L559,163.172L561,161.394L563,158.138L565,161.758L567,163.044L569,164.352L571,166.598L573,168.164L575,171.032L577,176.864L579,175.688L581,174.234L583,174.327L585,169.033L587,171.327L589,168.996L591,158.826L593,154.478L595,156.767L597,153.445L599,153.712L601,149.882L603,146.473L605,151.378L607,151.819L609,149.023L611,150.049L613,149.912L615,152.557L617,151.039L619,149.198L621,153.26L623,151.118L625,152.862L627,155.735L629,157.207L631,164.447L633,165.91L635,161.156L637,160.256L639,158.072L641,153.578L643,148.279L645,146.84L647,144.075L649,143.457L651,147.134L653,146.595L655,146.379L657,151.558L659,150.562L661,156.042L663,162.871L665,162.802L667,163.661L669,166.332L671,163.789L673,167.23L675,164.932L677,157.228L679,156.286L681,156.692L683,158.225L685,159.499L687,159.168L689,162.055L691,167.475L693,170.623L695,172.467L697,175.471L699,176.014L701,177.058L703,179.5L705,178.607L707,179.642L709,184.667L711,181.418L713,179.957L715,184.393L717,185.97L719,192.41L721,196.682L723,198.725L725,207.289L727,216.683L729,215.688L731,217.186L733,217.623L735,221.012L737,218.713L739,217.209L741,216.32L743,217.507L745,216.026L747,216.706L749,212.384L751,212.105L753,215.53L755,217.899L757,223.503L759,226.461L761,223.182L763,224.151L765,226.127L767,224.477L769,219.417L771,215.508L773,217.784"/></g><g aria-label="dot"><circle cx="83" cy="106.34075567226034" r="13" fill="#E1BE6A"/><circle cx="153" cy="158.1624575536374" r="13" fill="#E1BE6A"/><circle cx="263" cy="269.070083993701" r="13" fill="#E1BE6A"/><circle cx="349" cy="121.08801863442454" r="13" fill="#E1BE6A"/><circle cx="419" cy="156.3989157093512" r="13" fill="#E1BE6A"/><circle cx="545" cy="139.92146197026523" r="13" fill="#E1BE6A"/><circle cx="679" cy="173.1486883204867" r="13" fill="#E1BE6A"/><circle cx="705.0000000000001" cy="109.40334825735025" r="13" fill="#E1BE6A"/><circle cx="767" cy="65.33604207009792" r="13" fill="#E1BE6A"/></g><g aria-label="line" fill="none" stroke-width="3" stroke-linejoin="round" stroke-linecap="round"><path stroke="#40B0A6" d="M57,116.739L59,111.617L61,99.668L63,96.326L65,93.909L67,96.737L69,94.707L71,94.707L73,94.707L75,101.393L77,104.961L79,109.658L81,101.393L83,106.341L85,108.696L87,110.143L89,118.884L91,119.978L93,125.69L95,133.788L97,139.921L99,134.446L101,137.137L103,138.517L105,139.216L107,135.78L109,137.824L111,130.575L113,137.824L115,135.111L117,133.135L119,123.355L121,122.214L123,118.342L125,124.514L127,117.269L129,118.884L131,112.615L133,115.167L135,115.688L137,121.088L139,123.933L141,135.111L143,145.043L145,152.985L147,156.399L149,163.701L151,164.663L153,158.162L155,151.332L157,150.518L159,157.276L161,164.663L163,166.623L165,170.693L167,176.093L169,192.142L171,207.16L173,223.637L175,252.818L177,272.762L179,294.341L181,340L183,324.076L185,272.762L187,249.932L189,227.815L191,221.628L193,202.349L195,189.452L197,186.85L199,192.142L201,196.357L203,190.786L205,186.85L207,197.813L209,200.808L211,197.813L213,202.349L215,208.83L217,232.225L219,244.457L221,249.932L223,234.525L225,227.815L227,219.669L229,208.83L231,207.16L233,207.16L235,202.349L237,217.756L239,223.637L241,229.989L245,227.815L247,212.281L249,208.83L251,214.065L253,210.537L255,215.889L257,219.669L259,236.894L261,265.543L263,269.07L265,276.634L267,299.463L269,304.938L273,284.995L297,241.855L299,223.637L301,208.83L303,190.786L305,179.519L307,169.656L309,165.637L311,165.637L313,159.966L315,159.059L317,154.674L319,153.825L321,152.985L323,149.712L325,150.518L327,148.125L329,148.125L331,152.154L333,148.915L335,146.569L337,142.807L339,138.517L341,140.633L343,135.78L345,128.707L347,123.355L349,121.088L351,121.649L353,123.933L355,120.531L357,126.883L359,128.095L361,134.446L363,142.807L365,145.043L367,143.546L369,157.276L371,159.059L373,167.621L375,168.632L377,173.889L379,177.219L381,188.14L383,184.33L385,184.33L387,196.357L389,210.537L391,200.808L393,203.92L395,188.14L397,184.33L399,167.621L401,159.966L403,152.154L405,153.825L407,147.343L409,149.712L411,150.518L413,160.884L415,158.162L417,159.966L419,156.399L421,164.663L423,168.632L425,176.093L427,178.361L429,181.888L431,184.33L433,194.927L435,196.357L437,205.523L439,203.92L441,208.83L443,215.889L445,215.889L447,210.537L449,217.756L451,214.065L453,200.808L455,196.357L457,196.357L459,203.92L461,205.523L463,203.92L465,210.537L467,217.756L469,229.989L471,239.336L473,232.225L475,227.815L477,214.065L479,196.357L481,188.14L483,163.701L485,159.059L487,150.518L489,141.351L491,136.456L493,134.446L495,131.844L497,136.456L499,137.824L501,138.517L503,140.633L505,142.076L507,140.633L509,142.807L511,140.633L513,131.844L515,135.111L517,135.78L519,139.921L521,130.575L523,126.883L525,128.095L527,131.844L529,129.325L531,131.844L533,129.325L535,143.546L537,142.807L539,144.291L541,147.343L543,150.518L545,139.921L547,140.633L549,133.135L551,136.456L553,134.446L555,133.135L557,129.947L559,139.216L561,137.137L563,140.633L565,140.633L567,140.633L569,139.921L571,139.921L573,139.921L575,140.633L577,150.518L579,158.162L581,167.621L583,169.656L585,177.219L587,179.519L589,190.786L591,188.14L593,181.888L595,179.519L597,180.695L599,186.85L601,188.14L603,183.1L605,173.889L607,170.693L609,173.889L611,178.361L613,170.693L615,172.809L617,176.093L619,176.093L621,190.786L623,194.927L625,197.813L627,215.889L629,221.628L631,234.525L633,269.07L635,269.07L637,276.634L639,247.148L643,234.525L645,225.698L647,214.065L649,197.813L651,190.786L653,183.1L655,188.14L657,179.519L659,179.519L661,179.519L663,196.357L665,192.142L667,193.522L669,190.786L671,200.808L673,196.357L675,194.927L677,179.519L679,173.149L681,172.247L683,177.938L685,170.638L687,174.926L689,169.601L691,167.886L693,172.922L695,161.42L697,152.198L699,146.61L701,132.081L703,116.822L705,109.403L707,102.317L709,98.731L711,94.37L713,93.451L715,99.042L717,100.822L719,102.573L721,104.913L723,109.938L725,113.921L727,115.99L729,108.973L731,106.634L733,98.112L735,98.531L737,89.522L739,82.456L741,74.401L743,73.88L745,70.591L747,73.556L749,68.259L751,66.732L753,66.925L755,68.638L757,62.982L759,63.493L761,59.239L763,61.803L765,66.451L767,65.336L769,65.804L771,69.324L773,75.371"/></g><g aria-label="text" text-anchor="start"><text transform="translate(578,62.2327993943489)"><tspan x="0" y="-2.184em">25 December • Christmas</tspan><tspan x="0" y="-0.8839999999999999em">In the week before Christmas,</tspan><tspan x="0" y="0.4160000000000001em">Californian's spent more than three</tspan><tspan x="0" y="1.7160000000000002em">times the average amount on</tspan><tspan x="0" y="3.0160000000000005em">Veggie pizza.</tspan></text><text transform="translate(140,76.70113019915053)"><tspan x="0" y="-1.534em">17 January • Martin King Luther Jr. Day</tspan><tspan x="0" y="-0.23399999999999993em">Veggie pizza starts strong, with</tspan><tspan x="0" y="1.066em">above-average spending over</tspan><tspan x="0" y="2.366em">the first month of the year.</tspan></text><text transform="translate(264,336.2090536561087)"><tspan x="0" y="-1.534em">17 April • Easter Sunday</tspan><tspan x="0" y="-0.23399999999999993em">Veggie pizza sales remained</tspan><tspan x="0" y="1.066em">low for Easter. Maybe folks are</tspan><tspan x="0" y="2.366em">enjoying other treats?</tspan></text></g><g aria-label="arrow" fill="none" stroke="currentColor" stroke-width="1.5" stroke-opacity="0.5" stroke-linecap="round" stroke-miterlimit="1"><path d="M709.8833846708102,48.47726973866246A97.507352262406,97.507352262406 0,0,1 756.9638565779856,55.34725674747183M752.0852828781855,49.006947712762376L756.9638565779856,55.34725674747183L749.0337010361831,56.40207098837866"/><path d="M131.68478579792853,82.25605709098862A88.65404998156794,88.65404998156794 0,0,1 91.99993223089884,94.37212052904061M99.15591971079239,97.94868916218702L91.99993223089884,94.37212052904061L98.67532526552898,89.96313789886263"/><path d="M260.82367569372605,322.6564777770173A80.46575310086692,80.46575310086692 0,0,1 259.5206942866913,286.8209262077733M254.29411863217834,292.87756776293014L259.5206942866913,286.8209262077733L262.1526119078171,294.37559427696124"/></g></svg>